<svg xmlns="http://www.w3.org/2000/svg" xmlns:xlink="http://www.w3.org/1999/xlink" xmlns:lucid="lucid" width="960" height="620"><g transform="translate(-400 -40)" lucid:page-tab-id="0_0"><path d="M640 182a2 2 0 0 1 2-2h696a2 2 0 0 1 2 2v456a2 2 0 0 1-2 2H642a2 2 0 0 1-2-2z" fill="#ede7f6"/><use xlink:href="#a" transform="matrix(1,0,0,1,656,196) translate(0 16.69921875)"/><path d="M1158.5 496.36c12.1 0 24.47 3.84 24.47 11.28v48.48c0 7.32-12.36 11.28-24.48 11.28-12.13 0-24.5-3.96-24.5-11.28v-48.48c0-7.44 12.37-11.28 24.5-11.28zm-79.8 66.12h53.63V568h-53.64c-8.65 0-15.73-7.08-15.73-15.72v-88.56c0-8.64 7.08-15.72 15.72-15.72h88.3c8.65 0 15.6 7.08 15.6 15.72v34.68h-5.4v-34.68c0-5.64-4.55-10.2-10.2-10.2h-88.3c-5.65 0-10.33 4.56-10.33 10.2v88.56c0 5.64 4.68 10.2 10.32 10.2zm79.8-32.16c12.6 0 19.07-4.08 19.07-5.76v-9.6c-4.8 2.52-11.88 3.84-19.08 3.84-7.1 0-14.3-1.32-18.97-3.84v9.6c0 1.68 6.48 5.76 18.96 5.76zm0 16.68c12.6 0 19.07-4.08 19.07-5.76v-9.36c-4.8 2.52-11.88 3.96-19.08 3.96-7.1 0-14.3-1.44-18.97-3.96v9.36c0 1.68 6.48 5.76 18.96 5.76zm0 14.88c12.6 0 19.07-4.08 19.07-5.76v-7.56c-4.8 2.52-11.88 3.84-19.08 3.84-7.1 0-14.3-1.32-18.97-3.84v7.56c0 1.68 6.48 5.76 18.96 5.76zm0-60c-12.5 0-18.97 3.96-18.97 5.76 0 1.68 6.48 5.76 18.96 5.76 12.6 0 19.07-4.08 19.07-5.76 0-1.8-6.48-5.76-19.08-5.76zm3.23-24.12c-.72 1.44-1.8 2.28-3.24 2.76.6.48 1.3.84 2.03 1.2.6.24 1.44.36 2.16.48v2.04c-1.2-.12-2.3-.48-3.37-1.08-1.08-.6-2.04-1.44-3-2.4-1.2 0-2.28-.48-3.24-1.08-.85-.72-1.57-1.68-1.93-3-.48-1.32-.72-2.76-.72-4.56 0-2.64.48-4.8 1.68-6.24 1.08-1.56 2.52-2.28 4.56-2.28 1.9 0 3.47.72 4.55 2.28 1.08 1.44 1.68 3.6 1.68 6.24 0 2.28-.36 4.2-1.2 5.64zm-45.96 5.04c.36-.6.6-1.56.6-3v-.84c-.84.84-1.8 1.2-2.76 1.2-.7 0-1.43-.24-2.03-.72-.6-.48-1.08-1.2-1.32-2.16-.36-.84-.48-1.92-.48-3.12 0-1.92.36-3.36 1.08-4.44.72-1.2 1.68-1.68 2.88-1.68.96 0 1.92.36 2.88 1.32l.13-1.08h1.92v11.4c0 3.96-1.68 6-4.8 6-1.2 0-2.28-.36-3.36-.96v-1.68c1.2.48 2.27.72 3.1.72 1.1 0 1.8-.36 2.17-.96zm-37.32-18.24c.6.36 1.2.96 1.56 1.8.37.72.5 1.56.5 2.64 0 1.44-.37 2.64-1.2 3.6-.85.96-1.93 1.44-3.25 1.44h-2.52v6.36h-2.28v-16.56h4.8c.96 0 1.68.24 2.4.72zm8.52 3.48c1.56 0 2.76.48 3.48 1.56.84 1.2 1.2 2.76 1.2 4.8s-.36 3.6-1.2 4.68c-.72 1.08-1.92 1.68-3.48 1.68-1.44 0-2.64-.6-3.36-1.68-.83-1.08-1.3-2.64-1.3-4.68 0-2.04.47-3.6 1.3-4.8.73-1.08 1.93-1.56 3.37-1.56zm69.72 10.8c1.3 0 2.27-.6 2.87-1.68.6-1.2.96-2.76.96-5.04 0-2.16-.36-3.84-.96-4.92s-1.56-1.68-2.88-1.68c-1.33 0-2.3.6-2.9 1.68-.7 1.08-.95 2.76-.95 4.92 0 2.28.24 3.84.96 5.04.6 1.08 1.57 1.68 2.9 1.68zm-19.93-.72v1.68c-.96.6-2.04.96-3.36.96-1.55 0-2.75-.6-3.6-1.56-.83-1.08-1.2-2.64-1.2-4.8 0-2.04.37-3.72 1.2-4.8.85-1.08 1.93-1.56 3.37-1.56 1.32 0 2.28.36 2.88 1.2.6.84.96 2.04.96 3.6 0 .72 0 1.44-.23 2.04h-6c0 1.44.24 2.4.72 3.12.47.6 1.2.96 2.27.96.96 0 1.92-.24 3-.84zm8.4 0c.48-.48.72-1.2.72-2.04 0-1.08-.73-2.04-1.93-2.64l-1.68-.84c-1.1-.6-1.93-1.2-2.4-1.92-.5-.72-.73-1.56-.73-2.52 0-1.44.48-2.52 1.32-3.36.83-.84 1.9-1.2 3.35-1.2.96 0 2.16.24 3.48.84v1.8c-1.08-.48-2.16-.72-3.36-.72-.72 0-1.32.24-1.8.72-.36.36-.6.96-.6 1.8 0 .48.12 1.08.36 1.44.36.48.84.84 1.56 1.2l1.67.84c1.08.48 1.8 1.2 2.28 1.8.48.72.72 1.68.72 2.64 0 1.44-.48 2.64-1.32 3.48-.96.84-2.16 1.32-3.6 1.32-.72 0-1.44-.12-2.16-.24-.73-.12-1.2-.36-1.8-.72V478c1.3.48 2.63.84 3.83.84.84 0 1.56-.24 2.04-.72zm23.28-14.28v14.64h6v1.92h-8.4v-16.56zm-65.4 13.44v-7.2h-1.68v-1.44l1.8-.24.36-3.48h1.8v3.36h2.76v1.8h-2.77v6.96c0 .6.12 1.08.24 1.32.24.24.6.36 1.08.36.48 0 .96-.12 1.44-.24v1.68c-.6.24-1.33.36-2.17.36-.96 0-1.68-.24-2.16-.72-.48-.6-.72-1.44-.72-2.52zm-4.92 1.2c.24-.24.48-.72.48-1.32 0-.72-.47-1.2-1.3-1.68l-1.57-.72c-1.44-.72-2.16-1.8-2.16-3.36 0-.96.36-1.8.96-2.4.72-.72 1.56-.96 2.64-.96.96 0 1.92.24 2.88.72v1.68c-.84-.48-1.8-.72-2.76-.72-.5 0-.97.24-1.2.48-.37.24-.5.72-.5 1.2 0 .36.13.72.25.96.24.24.6.6 1.08.84l1.56.72c.7.36 1.2.72 1.55 1.32.36.48.48 1.08.48 1.8 0 1.08-.24 2.04-.96 2.64-.72.72-1.56 1.08-2.76 1.08-1.2 0-2.27-.36-3.35-.96v-1.56c1.32.48 2.4.72 3.24.72.6 0 1.07-.12 1.43-.48zm-9.24-.72c.35-.72.6-1.8.6-3.36 0-1.56-.25-2.76-.6-3.48-.5-.72-1.1-1.08-1.93-1.08-.84 0-1.44.36-1.8 1.08-.36.72-.6 1.92-.6 3.48s.24 2.64.6 3.36c.36.84.96 1.2 1.8 1.2.84 0 1.44-.36 1.92-1.2zm36.35-9.12c.36-.24.96-.36 1.56-.36h.73v2.04h-1.08c-.84 0-1.68.24-2.4.84v9.24h-2.28v-12.12h1.92l.1 1.44c.5-.48.97-.84 1.45-1.08zm-10.92 9.72c.6 0 1.32-.36 2.04-.96v-6.72c-.72-.6-1.44-.84-2.16-.84-.7 0-1.3.36-1.67 1.08-.36.6-.6 1.68-.6 3.24 0 1.44.24 2.4.6 3.12.36.72.96 1.08 1.8 1.08zm-36.72-7.08c.37-.6.6-1.32.6-2.28 0-1.08-.23-1.92-.6-2.4-.47-.6-1.07-.84-1.8-.84h-2.27v6.36h2.28c.73 0 1.33-.24 1.8-.84zm53.77-.6c-.36.6-.6 1.44-.6 2.64h4.2v-.24c.12-.12.12-.24.12-.36 0-1.08-.25-1.8-.5-2.28-.35-.48-.83-.72-1.43-.72-.84 0-1.32.24-1.8.96z" stroke="#000" stroke-opacity="0" fill="#2e27ad"/><path d="M1078.3 451.1h89.76c8.4 0 12.65 4.23 12.65 12.66v88.7c0 8.43-4.24 12.65-12.64 12.65h-89.77c-8.4 0-12.67-4.2-12.67-12.65v-88.7c0-8.42 4.26-12.64 12.66-12.64z" stroke="#000" stroke-opacity="0" fill-opacity="0"/><use xlink:href="#b" transform="matrix(1,0,0,1,1032.9700000000003,577) translate(41.025 14.4)"/><path d="M1062.97 295.15c-.12 1.3.96 2.57 3.24 3.56l48.85 19.94c4.32 1.8 11.52 1.8 15.84 0l48.83-19.93c2.28-.98 3.36-2.26 3.24-3.55v-11.43c.12 1.24-.96 2.53-3.24 3.48l-48.84 19.94c-4.33 1.8-11.53 1.8-15.85 0l-48.84-19.94c-2.5-1.06-3.6-2.5-3.1-3.85l-.13 11.8z" stroke="#000" stroke-opacity="0" fill="#ba141a"/><path d="M1179.73 280.7c4.32 1.77 4.32 4.72 0 6.48l-48.84 20c-4.33 1.76-11.53 1.76-15.85 0l-48.84-20c-4.3-1.76-4.3-4.7 0-6.48l48.85-19.98c4.32-1.77 11.52-1.77 15.84 0l48.83 19.98z" stroke="#000" stroke-opacity="0" fill="#ba141a"/><path d="M1062.97 274.96c-.12 1.28.96 2.56 3.24 3.55l48.85 19.95c4.32 1.8 11.52 1.8 15.84 0l48.83-19.94c2.28-.98 3.36-2.26 3.24-3.54v-11.44c.12 1.25-.96 2.53-3.24 3.48l-48.84 19.94c-4.33 1.8-11.53 1.8-15.85 0L1066.2 267c-2.5-1.06-3.6-2.5-3.1-3.84l-.13 11.8z" stroke="#000" stroke-opacity="0" fill="#ba141a"/><path d="M1179.73 260.5c4.32 1.77 4.32 4.72 0 6.5l-48.84 19.97c-4.33 1.77-11.53 1.77-15.85 0L1066.2 267c-4.3-1.78-4.3-4.73 0-6.5l48.85-19.98c4.32-1.77 11.52-1.77 15.84 0l48.83 20z" stroke="#000" stroke-opacity="0" fill="#ba141a"/><path d="M1062.97 254.76c-.12 1.28.96 2.57 3.24 3.56l48.85 19.93c4.32 1.8 11.52 1.8 15.84 0l48.83-19.93c2.28-1 3.36-2.28 3.24-3.56v-11.43c.12 1.24-.96 2.52-3.24 3.48l-48.84 19.94c-4.33 1.8-11.53 1.8-15.85 0l-48.84-19.93c-2.5-1.06-3.6-2.48-3.1-3.84l-.13 11.8z" stroke="#000" stroke-opacity="0" fill="#ba141a"/><path d="M1062.97 295.15c-.12 1.3.96 2.57 3.24 3.56l48.85 19.94c4.32 1.8 11.52 1.8 15.84 0l48.83-19.93c2.28-.98 3.36-2.26 3.24-3.55v-11.43c.12 1.24-.96 2.53-3.24 3.48l-48.84 19.94c-4.33 1.8-11.53 1.8-15.85 0l-48.84-19.94c-2.5-1.06-3.6-2.5-3.1-3.85l-.13 11.8z" stroke="#000" stroke-opacity="0" fill="#93171b"/><path d="M1062.97 274.96c-.12 1.28.96 2.56 3.24 3.55l48.85 19.95c4.32 1.8 11.52 1.8 15.84 0l48.83-19.94c2.28-.98 3.36-2.26 3.24-3.54v-11.44c.12 1.25-.96 2.53-3.24 3.48l-48.84 19.94c-4.33 1.8-11.53 1.8-15.85 0L1066.2 267c-2.5-1.06-3.6-2.5-3.1-3.84l-.13 11.8z" stroke="#000" stroke-opacity="0" fill="#93171b"/><path d="M1062.97 254.76c-.12 1.28.96 2.57 3.24 3.56l48.85 19.93c4.32 1.8 11.52 1.8 15.84 0l48.83-19.93c2.28-1 3.36-2.28 3.24-3.56v-11.43c.12 1.24-.96 2.52-3.24 3.48l-48.84 19.94c-4.33 1.8-11.53 1.8-15.85 0l-48.84-19.93c-2.5-1.06-3.6-2.48-3.1-3.84l-.13 11.8z" stroke="#000" stroke-opacity="0" fill="#93171b"/><path d="M1179.73 240.3c4.32 1.78 4.32 4.72 0 6.5l-48.84 19.98c-4.33 1.77-11.53 1.77-15.85 0l-48.84-20c-4.3-1.75-4.3-4.7 0-6.47l48.85-19.97c4.32-1.77 11.52-1.77 15.84 0l48.83 19.98z" stroke="#000" stroke-opacity="0" fill="#ba141a"/><path d="M1107.96 247.32c-5.6 2.47-14.6 2.47-20.18 0-5.56-2.48-5.56-6.48 0-8.97 5.6-2.46 14.6-2.46 20.18 0 5.55 2.5 5.55 6.5 0 8.97zM1104.17 253.68l28.55-3.4-7.65 12.68-20.9-9.28z" stroke="#000" stroke-opacity="0" fill="#fff"/><path d="M1148.9 250.5l-17.06-7.6 17.07-7.58v15.17z" stroke="#000" stroke-opacity="0" fill="#76191c"/><path d="M1117.5 233.63l-11.16-1 9.92-2.5-1.3-5 8.4 3.4 10.33-2.1-4.74 4.6 7.7 3.73-11.3-.58-5.62 4.4-2.24-4.95z" stroke="#000" stroke-opacity="0" fill="#fff"/><path d="M1166 242.9l-17.1-7.58v15.17l17.1-7.6z" fill="#93171b"/><use xlink:href="#c" transform="matrix(1,0,0,1,1032.9700000000003,329) translate(67.05 14.4)"/><path d="M480 60c-33.12 0-60 26.88-60 60 0 33.24 26.88 60 60 60 33.24 0 60-26.88 60-60 0-33.24-26.76-60-60-60zm15.84 112.08V162c0-4.08-2.28-7.56-5.4-9.84h.6c5.76-.6 10.68-2.4 10.68-2.4s7.32-2.28 11.4-6.96c4.2-5.16 5.4-12.36 5.4-12.36s1.2-7.92 0-14.28c-1.2-5.88-6-10.32-6-10.32s1.56-4.2 1.32-8.28c0-4.08-1.92-8.16-1.92-8.16s-3.48-.36-7.32 1.2c-4.44 1.92-9.48 5.4-9.48 5.4s-3.48-1.2-7.56-1.56c-3.72-.72-8.16-.72-8.16-.72s-4.44 0-8.28.72c-4.08.6-7.56 1.56-7.56 1.56s-5.04-3.48-9.48-5.4c-3.72-1.56-7.2-1.2-7.2-1.2s-1.92 4.08-1.92 8.16c0 4.2 1.2 8.28 1.2 8.28s-4.32 4.08-5.88 10.32c-1.68 6.36 0 14.28 0 14.28s.84 7.2 5.28 12.36c4.2 4.68 11.4 6.96 11.4 6.96s5.04 1.8 10.68 2.4h.96c-2.16 2.28-4.44 5.76-4.44 9.84v10.08c-22.32-6.6-38.52-27.48-38.52-52.08 0-30 24.36-54.24 54.36-54.24S534.72 90 534.72 120c0 24.6-16.44 45.48-38.88 52.08z" stroke="#000" stroke-opacity="0" fill="#0078d7"/><use xlink:href="#d" transform="matrix(1,0,0,1,390,189) translate(41.025 14.4)"/><use xlink:href="#e" transform="matrix(1,0,0,1,390,189) translate(99.975 14.4)"/><path d="M762.32 118.62l1 .24.94.4.87.52.77.66.67.78.53.87.4.93.23 1 .08 1v198.6h-1V125.05l-.06-.88-.2-.84-.33-.8-.45-.73-.56-.65-.66-.56-.74-.46-.8-.33-.83-.2-.88-.06H738.5v-1h22.8zm-221.86.92v-1H720.8v1z" stroke="#3a414a" stroke-width=".05" fill="#3a414a"/><path d="M540.47 119.54h-.5l-.03-1h.53z" fill="#3a414a"/><path d="M540.5 119.57h-.54l-.05-1.05h.6zm-.53-1l.03.95h.45v-.95z" stroke="#3a414a" stroke-width=".05" fill="#3a414a"/><path d="M767.3 338.38l-4.63-14.26h9.27z" fill="#3a414a"/><path d="M767.3 340L762 323.62h10.65zm-3.94-15.38l3.95 12.14 3.95-12.14z" stroke="#3a414a" stroke-width=".05" fill="#3a414a"/><use xlink:href="#f" transform="matrix(1,0,0,1,720.7950133950742,108.37397149815753) translate(0 14.222222222222223)"/><path d="M791.88 380h129.3a6 6 0 0 1 6 6v116a6 6 0 0 0 6 6h113.4" stroke="#3a414a" fill="none"/><path d="M791.9 380.5h-.52v-1h.5z" stroke="#3a414a" stroke-width=".05" fill="#3a414a"/><path d="M1061.35 508l-14.26 4.63v-9.26z" stroke="#3a414a" fill="#3a414a"/><path d="M927.7 374.02l-.08 1-.24 1-.4.93-.52.87-.66.78-.78.66-.87.53-.94.38-.98.24-1 .08H791.87v-1h129.3l.9-.07.83-.2.8-.33.73-.45.66-.56.55-.67.45-.73.33-.8.2-.84.07-.88v-68.8h1zM1046.64 270H933.22l-.88.07-.84.2-.8.33-.73.45-.66.56-.55.67-.45.73-.33.8-.2.84-.07.88v8.32h-1v-8.36l.08-1 .24-1 .4-.93.52-.87.66-.78.78-.66.87-.53.94-.38.98-.24 1-.08h113.46z" stroke="#3a414a" stroke-width=".05" fill="#3a414a"/><path d="M1061.4 269.5l-14.26 4.63v-9.26z" fill="#3a414a"/><path d="M1063.03 269.5l-16.4 5.32v-10.64zm-15.4 3.95l12.16-3.95-12.16-3.95z" stroke="#3a414a" stroke-width=".05" fill="#3a414a"/><path d="M791.9 380.5h-.52v-1h.5z" fill="#3a414a"/><path d="M791.9 380.52h-.55v-1.04h.56zm-.5-1v.96h.46v-.96z" stroke="#3a414a" stroke-width=".05" fill="#3a414a"/><use xlink:href="#g" transform="matrix(1,0,0,1,853.7189722571482,283.8430303045081) translate(0 14.222222222222223)"/><use xlink:href="#h" transform="matrix(1,0,0,1,853.7189722571482,283.8430303045081) translate(72.98765432098767 14.222222222222223)"/><path d="M503.27 388.52c16.5 10.2 26.73 28.92 26.73 48.72 0 1.56-1.2 2.76-2.75 2.76h-104.5c-1.54 0-2.75-1.2-2.75-2.76 0-26.64 18.04-49.08 42.13-55.08-11.55-5.04-19.58-16.44-19.58-29.76 0-17.88 14.52-32.4 32.45-32.4 17.93 0 32.45 14.52 32.45 32.4 0 13.32-8.03 24.72-19.58 29.76 5.4 1.32 10.56 3.36 15.4 6.36zM425.6 434.6h98.8c-.9-17.04-9.9-32.64-24.1-41.4-7.6-4.8-16.4-7.2-25.3-7.2-26.4 0-48.07 21.48-49.4 48.6zm22.45-82.2c0 14.88 12.1 26.88 26.95 26.88s26.95-12 26.95-26.88c0-14.88-12.1-27-26.95-27s-26.95 12.12-26.95 27z" stroke="#000" stroke-opacity="0" fill="#242f3e"/><use xlink:href="#i" transform="matrix(1,0,0,1,390,449) translate(66.05 14.4)"/><path d="M789.65 420H746.4c-.98 0-1.73-.8-1.73-1.68v-76.64c0-.88.75-1.68 1.73-1.68h43.25c.98 0 1.73.8 1.73 1.68v76.64c0 .88-.75 1.68-1.73 1.68zm-41.56-3.44h39.87v-73.12H748.1z" stroke="#fff" stroke-opacity="0" fill="#232f3e"/><path d="M752.8 347.98h30.44v3.4H752.8V348zM752.8 355.97h30.44v3.4H752.8v-3.4zM752.8 363.93h30.44v3.4H752.8v-3.4zM752.8 371.92h30.44v3.4H752.8v-3.4z" stroke="#fff" stroke-opacity="0" fill="#232f3e"/><use xlink:href="#j" transform="matrix(1,0,0,1,714.675422020189,429) translate(10.29012345679012 17.77777777777778)"/><path d="M492.45 380H728.3" stroke="#3a414a" fill="none"/><path stroke="#3a414a" stroke-width=".05" fill="#3a414a"/><path d="M743.06 380l-14.27 4.63v-9.26z" stroke="#3a414a" fill="#3a414a"/><defs><path d="M1161-1018c0 201-122 330-278 388l342 618V0h-206L703-589H361V0H168v-1456h482c310-2 511 139 511 438zm-193 0c0-187-120-280-313-280H361v552h295c179 3 313-101 312-272" id="k"/><path d="M561-1102c238-4 403 126 403 351v498c0 99 13 178 38 237V0H808c-11-21-19-59-26-114C696-25 593 20 474 20c-199 0-368-130-365-320 4-251 214-359 490-356h180v-85c-1-135-86-212-229-212-115 0-232 67-233 171H131c20-205 206-316 430-320zM294-326c0 117 90 185 207 185 122 0 239-75 278-162v-222H634c-227 0-340 66-340 199" id="l"/><path d="M341 0H156v-1082h185V0zm-91-1264c-68 0-108-42-109-105 0-62 41-107 109-107s110 44 110 107-42 105-110 105" id="m"/><path d="M341 0H156v-1536h185V0" id="n"/><path d="M1098-255l208-827h185L1176 0h-150L763-820 507 0H357L43-1082h184l213 810 252-810h149" id="o"/><path d="M494-271l252-811h198L509 167C425 381 299 474 84 421V271c167 16 242-37 283-173l41-110L22-1082h202" id="p"/><g id="a"><use transform="matrix(0.0087890625,0,0,0.0087890625,0,0)" xlink:href="#k"/><use transform="matrix(0.0087890625,0,0,0.0087890625,11.0830078125,0)" xlink:href="#l"/><use transform="matrix(0.0087890625,0,0,0.0087890625,20.8740234375,0)" xlink:href="#m"/><use transform="matrix(0.0087890625,0,0,0.0087890625,25.2421875,0)" xlink:href="#n"/><use transform="matrix(0.0087890625,0,0,0.0087890625,29.6103515625,0)" xlink:href="#o"/><use transform="matrix(0.0087890625,0,0,0.0087890625,43.13671875,0)" xlink:href="#l"/><use transform="matrix(0.0087890625,0,0,0.0087890625,52.7958984375,0)" xlink:href="#p"/></g><path d="M30-248c87 1 191-15 191 75 0 78-77 80-158 76V0H30v-248zm33 125c57 0 124 11 124-50 0-59-68-47-124-48v98" id="q"/><path d="M100-194c62-1 85 37 85 99 1 63-27 99-86 99S16-35 15-95c0-66 28-99 85-99zM99-20c44 1 53-31 53-75 0-43-8-75-51-75s-53 32-53 75 10 74 51 75" id="r"/><path d="M135-143c-3-34-86-38-87 0 15 53 115 12 119 90S17 21 10-45l28-5c4 36 97 45 98 0-10-56-113-15-118-90-4-57 82-63 122-42 12 7 21 19 24 35" id="s"/><path d="M59-47c-2 24 18 29 38 22v24C64 9 27 4 27-40v-127H5v-23h24l9-43h21v43h35v23H59v120" id="t"/><path d="M177-190C167-65 218 103 67 71c-23-6-38-20-44-43l32-5c15 47 100 32 89-28v-30C133-14 115 1 83 1 29 1 15-40 15-95c0-56 16-97 71-98 29-1 48 16 59 35 1-10 0-23 2-32h30zM94-22c36 0 50-32 50-73 0-42-14-75-50-75-39 0-46 34-46 75s6 73 46 73" id="u"/><path d="M114-163C36-179 61-72 57 0H25l-1-190h30c1 12-1 29 2 39 6-27 23-49 58-41v29" id="v"/><path d="M100-194c63 0 86 42 84 106H49c0 40 14 67 53 68 26 1 43-12 49-29l28 8c-11 28-37 45-77 45C44 4 14-33 15-96c1-61 26-98 85-98zm52 81c6-60-76-77-97-28-3 7-6 17-6 28h103" id="w"/><path d="M185-189c-5-48-123-54-124 2 14 75 158 14 163 119 3 78-121 87-175 55-17-10-28-26-33-46l33-7c5 56 141 63 141-1 0-78-155-14-162-118-5-82 145-84 179-34 5 7 8 16 11 25" id="x"/><path d="M140-251c81 0 123 46 123 126C263-53 228-8 163 1c7 30 30 48 69 40v23c-55 16-95-15-103-61C56-3 17-48 17-125c0-80 42-126 123-126zm0 227c63 0 89-41 89-101s-29-99-89-99c-61 0-89 39-89 99S79-25 140-24" id="y"/><path d="M30 0v-248h33v221h125V0H30" id="z"/><g id="b"><use transform="matrix(0.05,0,0,0.05,0,0)" xlink:href="#q"/><use transform="matrix(0.05,0,0,0.05,12,0)" xlink:href="#r"/><use transform="matrix(0.05,0,0,0.05,22,0)" xlink:href="#s"/><use transform="matrix(0.05,0,0,0.05,31,0)" xlink:href="#t"/><use transform="matrix(0.05,0,0,0.05,36,0)" xlink:href="#u"/><use transform="matrix(0.05,0,0,0.05,46,0)" xlink:href="#v"/><use transform="matrix(0.05,0,0,0.05,51.95,0)" xlink:href="#w"/><use transform="matrix(0.05,0,0,0.05,61.95,0)" xlink:href="#x"/><use transform="matrix(0.05,0,0,0.05,73.95,0)" xlink:href="#y"/><use transform="matrix(0.05,0,0,0.05,87.95,0)" xlink:href="#z"/></g><path d="M233-177c-1 41-23 64-60 70L243 0h-38l-65-103H63V0H30v-248c88 3 205-21 203 71zM63-129c60-2 137 13 137-47 0-61-80-42-137-45v92" id="A"/><path d="M85-194c31 0 48 13 60 33l-1-100h32l1 261h-30c-2-10 0-23-3-31C134-8 116 4 85 4 32 4 16-35 15-94c0-66 23-100 70-100zm9 24c-40 0-46 34-46 75 0 40 6 74 45 74 42 0 51-32 51-76 0-42-9-74-50-73" id="B"/><path d="M24-231v-30h32v30H24zM24 0v-190h32V0H24" id="C"/><g id="c"><use transform="matrix(0.05,0,0,0.05,0,0)" xlink:href="#A"/><use transform="matrix(0.05,0,0,0.05,12.950000000000001,0)" xlink:href="#w"/><use transform="matrix(0.05,0,0,0.05,22.950000000000003,0)" xlink:href="#B"/><use transform="matrix(0.05,0,0,0.05,32.95,0)" xlink:href="#C"/><use transform="matrix(0.05,0,0,0.05,36.900000000000006,0)" xlink:href="#s"/></g><path d="M84 4C-5 8 30-112 23-190h32v120c0 31 7 50 39 49 72-2 45-101 50-169h31l1 190h-30c-1-10 1-25-2-33-11 22-28 36-60 37" id="D"/><path d="M96-169c-40 0-48 33-48 73s9 75 48 75c24 0 41-14 43-38l32 2c-6 37-31 61-74 61-59 0-76-41-82-99-10-93 101-131 147-64 4 7 5 14 7 22l-32 3c-4-21-16-35-41-35" id="E"/><g id="d"><use transform="matrix(0.05,0,0,0.05,0,0)" xlink:href="#s"/><use transform="matrix(0.05,0,0,0.05,9,0)" xlink:href="#r"/><use transform="matrix(0.05,0,0,0.05,19,0)" xlink:href="#D"/><use transform="matrix(0.05,0,0,0.05,29,0)" xlink:href="#v"/><use transform="matrix(0.05,0,0,0.05,34.95,0)" xlink:href="#E"/><use transform="matrix(0.05,0,0,0.05,43.95,0)" xlink:href="#w"/></g><g id="e"><use transform="matrix(0.05,0,0,0.05,0,0)" xlink:href="#E"/><use transform="matrix(0.05,0,0,0.05,9,0)" xlink:href="#r"/><use transform="matrix(0.05,0,0,0.05,19,0)" xlink:href="#B"/><use transform="matrix(0.05,0,0,0.05,29,0)" xlink:href="#w"/></g><path fill="#333" d="M67-125c0 53 21 87 73 88 37 1 54-22 65-47l45 17C233-25 199 4 140 4 58 4 20-42 15-125 8-235 124-281 211-232c18 10 29 29 36 50l-46 12c-8-25-30-41-62-41-52 0-71 34-72 86" id="F"/><path fill="#333" d="M24 0v-248h52V0H24" id="G"/><g id="f"><use transform="matrix(0.04938271604938272,0,0,0.04938271604938272,0,0)" xlink:href="#F"/><use transform="matrix(0.04938271604938272,0,0,0.04938271604938272,12.790123456790125,0)" xlink:href="#G"/></g><path fill="#333" d="M169-182c-1-43-94-46-97-3 18 66 151 10 154 114 3 95-165 93-204 36-6-8-10-19-12-30l50-8c3 46 112 56 116 5-17-69-150-10-154-114-4-87 153-88 188-35 5 8 8 18 10 28" id="H"/><path fill="#333" d="M185-48c-13 30-37 53-82 52C43 2 14-33 14-96s30-98 90-98c62 0 83 45 84 108H66c0 31 8 55 39 56 18 0 30-7 34-22zm-45-69c5-46-57-63-70-21-2 6-4 13-4 21h74" id="I"/><path fill="#333" d="M137-138c1-29-70-34-71-4 15 46 118 7 119 86 1 83-164 76-172 9l43-7c4 19 20 25 44 25 33 8 57-30 24-41C81-84 22-81 20-136c-2-80 154-74 161-7" id="J"/><path fill="#333" d="M25-224v-37h50v37H25zM25 0v-190h50V0H25" id="K"/><path fill="#333" d="M110-194c64 0 96 36 96 99 0 64-35 99-97 99-61 0-95-36-95-99 0-62 34-99 96-99zm-1 164c35 0 45-28 45-65 0-40-10-65-43-65-34 0-45 26-45 65 0 36 10 65 43 65" id="L"/><path fill="#333" d="M135-194c87-1 58 113 63 194h-50c-7-57 23-157-34-157-59 0-34 97-39 157H25l-1-190h47c2 12-1 28 3 38 12-26 28-41 61-42" id="M"/><g id="g"><use transform="matrix(0.04938271604938272,0,0,0.04938271604938272,0,0)" xlink:href="#H"/><use transform="matrix(0.04938271604938272,0,0,0.04938271604938272,11.851851851851853,0)" xlink:href="#I"/><use transform="matrix(0.04938271604938272,0,0,0.04938271604938272,21.7283950617284,0)" xlink:href="#J"/><use transform="matrix(0.04938271604938272,0,0,0.04938271604938272,31.60493827160494,0)" xlink:href="#J"/><use transform="matrix(0.04938271604938272,0,0,0.04938271604938272,41.48148148148149,0)" xlink:href="#K"/><use transform="matrix(0.04938271604938272,0,0,0.04938271604938272,46.41975308641976,0)" xlink:href="#L"/><use transform="matrix(0.04938271604938272,0,0,0.04938271604938272,57.23456790123457,0)" xlink:href="#M"/></g><path fill="#333" d="M220-157c-53 9-28 100-34 157h-49v-107c1-27-5-49-29-50C55-147 81-57 75 0H25l-1-190h47c2 12-1 28 3 38 10-53 101-56 108 0 13-22 24-43 59-42 82 1 51 116 57 194h-49v-107c-1-25-5-48-29-50" id="N"/><path fill="#333" d="M133-34C117-15 103 5 69 4 32 3 11-16 11-54c-1-60 55-63 116-61 1-26-3-47-28-47-18 1-26 9-28 27l-52-2c7-38 36-58 82-57s74 22 75 68l1 82c-1 14 12 18 25 15v27c-30 8-71 5-69-32zm-48 3c29 0 43-24 42-57-32 0-66-3-65 30 0 17 8 27 23 27" id="O"/><path fill="#333" d="M195-6C206 82 75 100 31 46c-4-6-6-13-8-21l49-6c3 16 16 24 34 25 40 0 42-37 40-79-11 22-30 35-61 35-53 0-70-43-70-97 0-56 18-96 73-97 30 0 46 14 59 34l2-30h47zm-90-29c32 0 41-27 41-63 0-35-9-62-40-62-32 0-39 29-40 63 0 36 9 62 39 62" id="P"/><path fill="#333" d="M135-150c-39-12-60 13-60 57V0H25l-1-190h47c2 13-1 29 3 40 6-28 27-53 61-41v41" id="Q"/><g id="h"><use transform="matrix(0.04938271604938272,0,0,0.04938271604938272,0,0)" xlink:href="#N"/><use transform="matrix(0.04938271604938272,0,0,0.04938271604938272,15.80246913580247,0)" xlink:href="#O"/><use transform="matrix(0.04938271604938272,0,0,0.04938271604938272,25.679012345679016,0)" xlink:href="#M"/><use transform="matrix(0.04938271604938272,0,0,0.04938271604938272,36.49382716049383,0)" xlink:href="#O"/><use transform="matrix(0.04938271604938272,0,0,0.04938271604938272,46.370370370370374,0)" xlink:href="#P"/><use transform="matrix(0.04938271604938272,0,0,0.04938271604938272,57.18518518518519,0)" xlink:href="#I"/><use transform="matrix(0.04938271604938272,0,0,0.04938271604938272,67.06172839506173,0)" xlink:href="#Q"/></g><path d="M232-93c-1 65-40 97-104 97C67 4 28-28 28-90v-158h33c8 89-33 224 67 224 102 0 64-133 71-224h33v155" id="R"/><g id="i"><use transform="matrix(0.05,0,0,0.05,0,0)" xlink:href="#R"/><use transform="matrix(0.05,0,0,0.05,12.950000000000001,0)" xlink:href="#s"/><use transform="matrix(0.05,0,0,0.05,21.950000000000003,0)" xlink:href="#w"/><use transform="matrix(0.05,0,0,0.05,31.950000000000003,0)" xlink:href="#v"/></g><path fill="#3a414a" d="M160-131c35 5 61 23 61 61C221 17 115-2 30 0v-248c76 3 177-17 177 60 0 33-19 50-47 57zm-97-11c50-1 110 9 110-42 0-47-63-36-110-37v79zm0 115c55-2 124 14 124-45 0-56-70-42-124-44v89" id="S"/><path fill="#3a414a" d="M141-36C126-15 110 5 73 4 37 3 15-17 15-53c-1-64 63-63 125-63 3-35-9-54-41-54-24 1-41 7-42 31l-33-3c5-37 33-52 76-52 45 0 72 20 72 64v82c-1 20 7 32 28 27v20c-31 9-61-2-59-35zM48-53c0 20 12 33 32 33 41-3 63-29 60-74-43 2-92-5-92 41" id="T"/><path fill="#3a414a" d="M96-169c-40 0-48 33-48 73s9 75 48 75c24 0 41-14 43-38l32 2c-6 37-31 61-74 61-59 0-76-41-82-99-10-93 101-131 147-64 4 7 5 14 7 22l-32 3c-4-21-16-35-41-35" id="U"/><path fill="#3a414a" d="M143 0L79-87 56-68V0H24v-261h32v163l83-92h37l-77 82L181 0h-38" id="V"/><path fill="#3a414a" d="M100-194c63 0 86 42 84 106H49c0 40 14 67 53 68 26 1 43-12 49-29l28 8c-11 28-37 45-77 45C44 4 14-33 15-96c1-61 26-98 85-98zm52 81c6-60-76-77-97-28-3 7-6 17-6 28h103" id="W"/><path fill="#3a414a" d="M117-194c89-4 53 116 60 194h-32v-121c0-31-8-49-39-48C34-167 62-67 57 0H25l-1-190h30c1 10-1 24 2 32 11-22 29-35 61-36" id="X"/><path fill="#3a414a" d="M85-194c31 0 48 13 60 33l-1-100h32l1 261h-30c-2-10 0-23-3-31C134-8 116 4 85 4 32 4 16-35 15-94c0-66 23-100 70-100zm9 24c-40 0-46 34-46 75 0 40 6 74 45 74 42 0 51-32 51-76 0-42-9-74-50-73" id="Y"/><g id="j"><use transform="matrix(0.06172839506172839,0,0,0.06172839506172839,0,0)" xlink:href="#S"/><use transform="matrix(0.06172839506172839,0,0,0.06172839506172839,14.814814814814813,0)" xlink:href="#T"/><use transform="matrix(0.06172839506172839,0,0,0.06172839506172839,27.160493827160494,0)" xlink:href="#U"/><use transform="matrix(0.06172839506172839,0,0,0.06172839506172839,38.27160493827161,0)" xlink:href="#V"/><use transform="matrix(0.06172839506172839,0,0,0.06172839506172839,49.38271604938272,0)" xlink:href="#W"/><use transform="matrix(0.06172839506172839,0,0,0.06172839506172839,61.7283950617284,0)" xlink:href="#X"/><use transform="matrix(0.06172839506172839,0,0,0.06172839506172839,74.07407407407408,0)" xlink:href="#Y"/></g></defs></g></svg>